# xmcd
# 
# Track frame offsets:
#     150
#     10260
#     23575
#     32320
#     46475
#     57360
#     70492
#     79950
#     90815
#     102547
#     111870
#     123765
#     133715
#     147597
#     159915
#     173440
#     183870
#     195337
# 
# Disc length: 2758
# 
# Revision: 14
# Processed by: cddbd v1.5.2PL0 Copyright (c) Steve Scherf et al.
# Submitted via: fre:ac v1.0.17
# 
DISCID=df0ac412
DTITLE=Al Jolson - Jazz Masters
DYEAR=0
DGENRE=Jazz
TTITLE0=Liza
TTITLE1=My mammy
TTITLE2=Swanne
TTITLE3=Sonny boy
TTITLE4=There's a rainbow round my shoulder
TTITLE5=Rockabye bye your baby with a dixie melody
TTITLE6=For me and my gal
TTITLE7=Let me sing and I'm happy
TTITLE8=Give my regards to Broadway
TTITLE9=Alabamy bound
TTITLE10=When the red red robim goes bob bob bobbing along
TTITLE11=Toot toot tootsie goodbye
TTITLE12=April showers
TTITLE13=I only have eyes for you
TTITLE14=Alexanders ragtime band
TTITLE15=Avalon
TTITLE16=I'm sitting on the top of the world
TTITLE17=I'm in seventh heaven
EXTD=
EXTT0=
EXTT1=
EXTT2=
EXTT3=
EXTT4=
EXTT5=
EXTT6=
EXTT7=
EXTT8=
EXTT9=
EXTT10=
EXTT11=
EXTT12=
EXTT13=
EXTT14=
EXTT15=
EXTT16=
EXTT17=
PLAYORDER=
